<svg xmlns="http://www.w3.org/2000/svg" width="1280" height="640" viewBox="0 0 1280 640">
  <rect width="1280" height="640" fill="#F5F0E8"/>
  <rect x="20" y="20" width="1240" height="600" fill="none" stroke="#EAB308" stroke-width="8"/>
  <rect x="20" y="20" width="1240" height="70" fill="#000"/>
  <text x="50" y="65" font-family="Arial Black, sans-serif" font-size="28" fill="#EAB308" font-weight="900">OUTLAWZ LABS™</text>
  <text x="1180" y="65" font-family="Arial, sans-serif" font-size="18" fill="#fff" text-anchor="end">by OutLawzz</text>
  <text x="60" y="180" font-family="Arial Black, sans-serif" font-size="52" fill="#000" font-weight="900">BRANDEX DRIVE PARSER</text>
  <text x="60" y="230" font-family="Arial, sans-serif" font-size="22" fill="#333">SMART GOOGLE DRIVE FOLDER PARSER FOR TRADEMARK DATA</text>
  <rect x="60" y="270" width="110" height="36" fill="#EAB308"/>
  <text x="115" y="295" font-family="Arial, sans-serif" font-size="14" fill="#000" text-anchor="middle" font-weight="700">PYTHON</text>
  <rect x="185" y="270" width="160" height="36" fill="#EAB308"/>
  <text x="265" y="295" font-family="Arial, sans-serif" font-size="14" fill="#000" text-anchor="middle" font-weight="700">GOOGLE SHEETS</text>
  <rect x="360" y="270" width="150" height="36" fill="#EAB308"/>
  <text x="435" y="295" font-family="Arial, sans-serif" font-size="14" fill="#000" text-anchor="middle" font-weight="700">GOOGLE DRIVE</text>
  <rect x="525" y="270" width="100" height="36" fill="#EAB308"/>
  <text x="575" y="295" font-family="Arial, sans-serif" font-size="14" fill="#000" text-anchor="middle" font-weight="700">REGEX</text>
  <rect x="640" y="270" width="70" height="36" fill="#EAB308"/>
  <text x="675" y="295" font-family="Arial, sans-serif" font-size="14" fill="#000" text-anchor="middle" font-weight="700">CLI</text>
  <g transform="translate(60,340)">
    <rect width="270" height="200" fill="#fff" stroke="#000" stroke-width="4"/>
    <rect width="270" height="45" fill="#000"/>
    <text x="135" y="30" font-family="Arial, sans-serif" font-size="16" fill="#EAB308" text-anchor="middle" font-weight="700">SCANNING</text>
    <rect x="20" y="80" width="230" height="24" fill="#000"/>
    <rect x="20" y="80" width="180" height="24" fill="#EAB308"/>
    <text x="135" y="140" font-family="Arial, sans-serif" font-size="13" fill="#333" text-anchor="middle">Multi-mode folder scan</text>
  </g>
  <g transform="translate(360,340)">
    <rect width="270" height="200" fill="#fff" stroke="#000" stroke-width="4"/>
    <rect width="270" height="45" fill="#000"/>
    <text x="135" y="30" font-family="Arial, sans-serif" font-size="16" fill="#EAB308" text-anchor="middle" font-weight="700">CLASSIFICATION</text>
    <rect x="20" y="80" width="230" height="24" fill="#000"/>
    <rect x="20" y="80" width="200" height="24" fill="#EAB308"/>
    <text x="135" y="140" font-family="Arial, sans-serif" font-size="13" fill="#333" text-anchor="middle">13+ regex trademark rules</text>
  </g>
  <g transform="translate(660,340)">
    <rect width="270" height="200" fill="#fff" stroke="#000" stroke-width="4"/>
    <rect width="270" height="45" fill="#000"/>
    <text x="135" y="30" font-family="Arial, sans-serif" font-size="16" fill="#EAB308" text-anchor="middle" font-weight="700">EXPORT</text>
    <rect x="20" y="80" width="230" height="24" fill="#000"/>
    <rect x="20" y="80" width="160" height="24" fill="#EAB308"/>
    <text x="135" y="140" font-family="Arial, sans-serif" font-size="13" fill="#333" text-anchor="middle">Excel / CSV local export</text>
  </g>
  <g transform="translate(960,340)">
    <rect width="240" height="200" fill="#fff" stroke="#000" stroke-width="4"/>
    <rect width="240" height="45" fill="#000"/>
    <text x="120" y="30" font-family="Arial, sans-serif" font-size="16" fill="#EAB308" text-anchor="middle" font-weight="700">SHEETS SYNC</text>
    <rect x="20" y="80" width="200" height="24" fill="#000"/>
    <rect x="20" y="80" width="190" height="24" fill="#EAB308"/>
    <text x="120" y="140" font-family="Arial, sans-serif" font-size="13" fill="#333" text-anchor="middle">Google Sheets upload</text>
  </g>
</svg>
